<svg width="182" height="37" viewBox="0 0 182 37" fill="none" xmlns="http://www.w3.org/2000/svg">
<path d="M176.652 31.0137V36H175.568V29.6602H176.594L176.652 31.0137ZM176.395 32.5898L175.943 32.5723C175.947 32.1387 176.012 31.7383 176.137 31.3711C176.262 31 176.438 30.6777 176.664 30.4043C176.891 30.1309 177.16 29.9199 177.473 29.7715C177.789 29.6191 178.139 29.543 178.521 29.543C178.834 29.543 179.115 29.5859 179.365 29.6719C179.615 29.7539 179.828 29.8867 180.004 30.0703C180.184 30.2539 180.32 30.4922 180.414 30.7852C180.508 31.0742 180.555 31.4277 180.555 31.8457V36H179.465V31.834C179.465 31.502 179.416 31.2363 179.318 31.0371C179.221 30.834 179.078 30.6875 178.891 30.5977C178.703 30.5039 178.473 30.457 178.199 30.457C177.93 30.457 177.684 30.5137 177.461 30.627C177.242 30.7402 177.053 30.8965 176.893 31.0957C176.736 31.2949 176.613 31.5234 176.523 31.7812C176.438 32.0352 176.395 32.3047 176.395 32.5898Z" fill="#82F3FF"/>
<path d="M173.828 29.6602V36H172.738V29.6602H173.828ZM172.656 27.9785C172.656 27.8027 172.709 27.6543 172.814 27.5332C172.924 27.4121 173.084 27.3516 173.295 27.3516C173.502 27.3516 173.66 27.4121 173.77 27.5332C173.883 27.6543 173.939 27.8027 173.939 27.9785C173.939 28.1465 173.883 28.291 173.77 28.4121C173.66 28.5293 173.502 28.5879 173.295 28.5879C173.084 28.5879 172.924 28.5293 172.814 28.4121C172.709 28.291 172.656 28.1465 172.656 27.9785Z" fill="#82F3FF"/>
<path d="M163.205 30.9199V36H162.115V29.6602H163.146L163.205 30.9199ZM162.982 32.5898L162.479 32.5723C162.482 32.1387 162.539 31.7383 162.648 31.3711C162.758 31 162.92 30.6777 163.135 30.4043C163.35 30.1309 163.617 29.9199 163.938 29.7715C164.258 29.6191 164.629 29.543 165.051 29.543C165.348 29.543 165.621 29.5859 165.871 29.6719C166.121 29.7539 166.338 29.8848 166.521 30.0645C166.705 30.2441 166.848 30.4746 166.949 30.7559C167.051 31.0371 167.102 31.377 167.102 31.7754V36H166.018V31.8281C166.018 31.4961 165.961 31.2305 165.848 31.0312C165.738 30.832 165.582 30.6875 165.379 30.5977C165.176 30.5039 164.938 30.457 164.664 30.457C164.344 30.457 164.076 30.5137 163.861 30.627C163.646 30.7402 163.475 30.8965 163.346 31.0957C163.217 31.2949 163.123 31.5234 163.064 31.7812C163.01 32.0352 162.982 32.3047 162.982 32.5898ZM167.09 31.9922L166.363 32.2148C166.367 31.8672 166.424 31.5332 166.533 31.2129C166.646 30.8926 166.809 30.6074 167.02 30.3574C167.234 30.1074 167.498 29.9102 167.811 29.7656C168.123 29.6172 168.48 29.543 168.883 29.543C169.223 29.543 169.523 29.5879 169.785 29.6777C170.051 29.7676 170.273 29.9062 170.453 30.0938C170.637 30.2773 170.775 30.5137 170.869 30.8027C170.963 31.0918 171.01 31.4355 171.01 31.834V36H169.92V31.8223C169.92 31.4668 169.863 31.1914 169.75 30.9961C169.641 30.7969 169.484 30.6582 169.281 30.5801C169.082 30.498 168.844 30.457 168.566 30.457C168.328 30.457 168.117 30.498 167.934 30.5801C167.75 30.6621 167.596 30.7754 167.471 30.9199C167.346 31.0605 167.25 31.2227 167.184 31.4062C167.121 31.5898 167.09 31.7852 167.09 31.9922Z" fill="#82F3FF"/>
<path d="M159.35 34.7695V27H160.439V36H159.443L159.35 34.7695ZM155.084 32.9004V32.7773C155.084 32.293 155.143 31.8535 155.26 31.459C155.381 31.0605 155.551 30.7188 155.77 30.4336C155.992 30.1484 156.256 29.9297 156.561 29.7773C156.869 29.6211 157.213 29.543 157.592 29.543C157.99 29.543 158.338 29.6133 158.635 29.7539C158.936 29.8906 159.189 30.0918 159.396 30.3574C159.607 30.6191 159.773 30.9355 159.895 31.3066C160.016 31.6777 160.1 32.0977 160.146 32.5664V33.1055C160.104 33.5703 160.02 33.9883 159.895 34.3594C159.773 34.7305 159.607 35.0469 159.396 35.3086C159.189 35.5703 158.936 35.7715 158.635 35.9121C158.334 36.0488 157.982 36.1172 157.58 36.1172C157.209 36.1172 156.869 36.0371 156.561 35.877C156.256 35.7168 155.992 35.4922 155.77 35.2031C155.551 34.9141 155.381 34.5742 155.26 34.1836C155.143 33.7891 155.084 33.3613 155.084 32.9004ZM156.174 32.7773V32.9004C156.174 33.2168 156.205 33.5137 156.268 33.791C156.334 34.0684 156.436 34.3125 156.572 34.5234C156.709 34.7344 156.883 34.9004 157.094 35.0215C157.305 35.1387 157.557 35.1973 157.85 35.1973C158.209 35.1973 158.504 35.1211 158.734 34.9688C158.969 34.8164 159.156 34.6152 159.297 34.3652C159.438 34.1152 159.547 33.8438 159.625 33.5508V32.1387C159.578 31.9238 159.51 31.7168 159.42 31.5176C159.334 31.3145 159.221 31.1348 159.08 30.9785C158.943 30.8184 158.773 30.6914 158.57 30.5977C158.371 30.5039 158.135 30.457 157.861 30.457C157.564 30.457 157.309 30.5195 157.094 30.6445C156.883 30.7656 156.709 30.9336 156.572 31.1484C156.436 31.3594 156.334 31.6055 156.268 31.8867C156.205 32.1641 156.174 32.4609 156.174 32.7773Z" fill="#82F3FF"/>
<path d="M152.564 34.916V31.6523C152.564 31.4023 152.514 31.1855 152.412 31.002C152.314 30.8145 152.166 30.6699 151.967 30.5684C151.768 30.4668 151.521 30.416 151.229 30.416C150.955 30.416 150.715 30.4629 150.508 30.5566C150.305 30.6504 150.145 30.7734 150.027 30.9258C149.914 31.0781 149.857 31.2422 149.857 31.418H148.773C148.773 31.1914 148.832 30.9668 148.949 30.7441C149.066 30.5215 149.234 30.3203 149.453 30.1406C149.676 29.957 149.941 29.8125 150.25 29.707C150.562 29.5977 150.91 29.543 151.293 29.543C151.754 29.543 152.16 29.6211 152.512 29.7773C152.867 29.9336 153.145 30.1699 153.344 30.4863C153.547 30.7988 153.648 31.1914 153.648 31.6641V34.6172C153.648 34.8281 153.666 35.0527 153.701 35.291C153.74 35.5293 153.797 35.7344 153.871 35.9062V36H152.74C152.686 35.875 152.643 35.709 152.611 35.502C152.58 35.291 152.564 35.0957 152.564 34.916ZM152.752 32.1562L152.764 32.918H151.668C151.359 32.918 151.084 32.9434 150.842 32.9941C150.6 33.041 150.396 33.1133 150.232 33.2109C150.068 33.3086 149.943 33.4316 149.857 33.5801C149.771 33.7246 149.729 33.8945 149.729 34.0898C149.729 34.2891 149.773 34.4707 149.863 34.6348C149.953 34.7988 150.088 34.9297 150.268 35.0273C150.451 35.1211 150.676 35.168 150.941 35.168C151.273 35.168 151.566 35.0977 151.82 34.957C152.074 34.8164 152.275 34.6445 152.424 34.4414C152.576 34.2383 152.658 34.041 152.67 33.8496L153.133 34.3711C153.105 34.5352 153.031 34.7168 152.91 34.916C152.789 35.1152 152.627 35.3066 152.424 35.4902C152.225 35.6699 151.986 35.8203 151.709 35.9414C151.436 36.0586 151.127 36.1172 150.783 36.1172C150.354 36.1172 149.977 36.0332 149.652 35.8652C149.332 35.6973 149.082 35.4727 148.902 35.1914C148.727 34.9062 148.639 34.5879 148.639 34.2363C148.639 33.8965 148.705 33.5977 148.838 33.3398C148.971 33.0781 149.162 32.8613 149.412 32.6895C149.662 32.5137 149.963 32.3809 150.314 32.291C150.666 32.2012 151.059 32.1562 151.492 32.1562H152.752Z" fill="#82F3FF"/>
<path d="M177.969 12.0859V22H174.594V9.32031H177.77L177.969 12.0859ZM181.789 9.23828L181.73 12.3672C181.566 12.3438 181.367 12.3242 181.133 12.3086C180.906 12.2852 180.699 12.2734 180.512 12.2734C180.035 12.2734 179.621 12.3359 179.27 12.4609C178.926 12.5781 178.637 12.7539 178.402 12.9883C178.176 13.2227 178.004 13.5078 177.887 13.8438C177.777 14.1797 177.715 14.5625 177.699 14.9922L177.02 14.7812C177.02 13.9609 177.102 13.207 177.266 12.5195C177.43 11.8242 177.668 11.2188 177.98 10.7031C178.301 10.1875 178.691 9.78906 179.152 9.50781C179.613 9.22656 180.141 9.08594 180.734 9.08594C180.922 9.08594 181.113 9.10156 181.309 9.13281C181.504 9.15625 181.664 9.19141 181.789 9.23828Z" fill="white"/>
<path d="M167.469 22.2344C166.484 22.2344 165.602 22.0781 164.82 21.7656C164.039 21.4453 163.375 21.0039 162.828 20.4414C162.289 19.8789 161.875 19.2266 161.586 18.4844C161.297 17.7344 161.152 16.9375 161.152 16.0938V15.625C161.152 14.6641 161.289 13.7852 161.562 12.9883C161.836 12.1914 162.227 11.5 162.734 10.9141C163.25 10.3281 163.875 9.87891 164.609 9.56641C165.344 9.24609 166.172 9.08594 167.094 9.08594C167.992 9.08594 168.789 9.23438 169.484 9.53125C170.18 9.82812 170.762 10.25 171.23 10.7969C171.707 11.3438 172.066 12 172.309 12.7656C172.551 13.5234 172.672 14.3672 172.672 15.2969V16.7031H162.594V14.4531H169.355V14.1953C169.355 13.7266 169.27 13.3086 169.098 12.9414C168.934 12.5664 168.684 12.2695 168.348 12.0508C168.012 11.832 167.582 11.7227 167.059 11.7227C166.613 11.7227 166.23 11.8203 165.91 12.0156C165.59 12.2109 165.328 12.4844 165.125 12.8359C164.93 13.1875 164.781 13.6016 164.68 14.0781C164.586 14.5469 164.539 15.0625 164.539 15.625V16.0938C164.539 16.6016 164.609 17.0703 164.75 17.5C164.898 17.9297 165.105 18.3008 165.371 18.6133C165.645 18.9258 165.973 19.168 166.355 19.3398C166.746 19.5117 167.188 19.5977 167.68 19.5977C168.289 19.5977 168.855 19.4805 169.379 19.2461C169.91 19.0039 170.367 18.6406 170.75 18.1562L172.391 19.9375C172.125 20.3203 171.762 20.6875 171.301 21.0391C170.848 21.3906 170.301 21.6797 169.66 21.9062C169.02 22.125 168.289 22.2344 167.469 22.2344Z" fill="white"/>
<path d="M156.453 12.0859V22H153.078V9.32031H156.254L156.453 12.0859ZM160.273 9.23828L160.215 12.3672C160.051 12.3438 159.852 12.3242 159.617 12.3086C159.391 12.2852 159.184 12.2734 158.996 12.2734C158.52 12.2734 158.105 12.3359 157.754 12.4609C157.41 12.5781 157.121 12.7539 156.887 12.9883C156.66 13.2227 156.488 13.5078 156.371 13.8438C156.262 14.1797 156.199 14.5625 156.184 14.9922L155.504 14.7812C155.504 13.9609 155.586 13.207 155.75 12.5195C155.914 11.8242 156.152 11.2188 156.465 10.7031C156.785 10.1875 157.176 9.78906 157.637 9.50781C158.098 9.22656 158.625 9.08594 159.219 9.08594C159.406 9.08594 159.598 9.10156 159.793 9.13281C159.988 9.15625 160.148 9.19141 160.273 9.23828Z" fill="white"/>
<path d="M138.992 15.7891V15.543C138.992 14.6133 139.125 13.7578 139.391 12.9766C139.656 12.1875 140.043 11.5039 140.551 10.9258C141.059 10.3477 141.684 9.89844 142.426 9.57812C143.168 9.25 144.02 9.08594 144.98 9.08594C145.941 9.08594 146.797 9.25 147.547 9.57812C148.297 9.89844 148.926 10.3477 149.434 10.9258C149.949 11.5039 150.34 12.1875 150.605 12.9766C150.871 13.7578 151.004 14.6133 151.004 15.543V15.7891C151.004 16.7109 150.871 17.5664 150.605 18.3555C150.34 19.1367 149.949 19.8203 149.434 20.4062C148.926 20.9844 148.301 21.4336 147.559 21.7539C146.816 22.0742 145.965 22.2344 145.004 22.2344C144.043 22.2344 143.188 22.0742 142.438 21.7539C141.695 21.4336 141.066 20.9844 140.551 20.4062C140.043 19.8203 139.656 19.1367 139.391 18.3555C139.125 17.5664 138.992 16.7109 138.992 15.7891ZM142.367 15.543V15.7891C142.367 16.3203 142.414 16.8164 142.508 17.2773C142.602 17.7383 142.75 18.1445 142.953 18.4961C143.164 18.8398 143.438 19.1094 143.773 19.3047C144.109 19.5 144.52 19.5977 145.004 19.5977C145.473 19.5977 145.875 19.5 146.211 19.3047C146.547 19.1094 146.816 18.8398 147.02 18.4961C147.223 18.1445 147.371 17.7383 147.465 17.2773C147.566 16.8164 147.617 16.3203 147.617 15.7891V15.543C147.617 15.0273 147.566 14.543 147.465 14.0898C147.371 13.6289 147.219 13.2227 147.008 12.8711C146.805 12.5117 146.535 12.2305 146.199 12.0273C145.863 11.8242 145.457 11.7227 144.98 11.7227C144.504 11.7227 144.098 11.8242 143.762 12.0273C143.434 12.2305 143.164 12.5117 142.953 12.8711C142.75 13.2227 142.602 13.6289 142.508 14.0898C142.414 14.543 142.367 15.0273 142.367 15.543Z" fill="white"/>
<path d="M136.742 4V22H133.355V4H136.742Z" fill="white"/>
<path d="M123.055 11.7578V26.875H119.68V9.32031H122.809L123.055 11.7578ZM131.082 15.5195V15.7656C131.082 16.6875 130.973 17.543 130.754 18.332C130.543 19.1211 130.23 19.8086 129.816 20.3945C129.402 20.9727 128.887 21.4258 128.27 21.7539C127.66 22.0742 126.957 22.2344 126.16 22.2344C125.387 22.2344 124.715 22.0781 124.145 21.7656C123.574 21.4531 123.094 21.0156 122.703 20.4531C122.32 19.8828 122.012 19.2227 121.777 18.4727C121.543 17.7227 121.363 16.918 121.238 16.0586V15.4141C121.363 14.4922 121.543 13.6484 121.777 12.8828C122.012 12.1094 122.32 11.4414 122.703 10.8789C123.094 10.3086 123.57 9.86719 124.133 9.55469C124.703 9.24219 125.371 9.08594 126.137 9.08594C126.941 9.08594 127.648 9.23828 128.258 9.54297C128.875 9.84766 129.391 10.2852 129.805 10.8555C130.227 11.4258 130.543 12.1055 130.754 12.8945C130.973 13.6836 131.082 14.5586 131.082 15.5195ZM127.695 15.7656V15.5195C127.695 14.9805 127.648 14.4844 127.555 14.0312C127.469 13.5703 127.328 13.168 127.133 12.8242C126.945 12.4805 126.695 12.2148 126.383 12.0273C126.078 11.832 125.707 11.7344 125.27 11.7344C124.809 11.7344 124.414 11.8086 124.086 11.957C123.766 12.1055 123.504 12.3203 123.301 12.6016C123.098 12.8828 122.945 13.2188 122.844 13.6094C122.742 14 122.68 14.4414 122.656 14.9336V16.5625C122.695 17.1406 122.805 17.6602 122.984 18.1211C123.164 18.5742 123.441 18.9336 123.816 19.1992C124.191 19.4648 124.684 19.5977 125.293 19.5977C125.738 19.5977 126.113 19.5 126.418 19.3047C126.723 19.1016 126.969 18.8242 127.156 18.4727C127.352 18.1211 127.488 17.7148 127.566 17.2539C127.652 16.793 127.695 16.2969 127.695 15.7656Z" fill="white"/>
<path d="M110.188 9.32031L112.285 13.1758L114.441 9.32031H118.039L114.453 15.5195L118.203 22H114.594L112.309 17.9219L110.023 22H106.414L110.164 15.5195L106.578 9.32031H110.188Z" fill="white"/>
<path d="M100.344 22.2344C99.3594 22.2344 98.4766 22.0781 97.6953 21.7656C96.9141 21.4453 96.25 21.0039 95.7031 20.4414C95.1641 19.8789 94.75 19.2266 94.4609 18.4844C94.1719 17.7344 94.0273 16.9375 94.0273 16.0938V15.625C94.0273 14.6641 94.1641 13.7852 94.4375 12.9883C94.7109 12.1914 95.1016 11.5 95.6094 10.9141C96.125 10.3281 96.75 9.87891 97.4844 9.56641C98.2188 9.24609 99.0469 9.08594 99.9688 9.08594C100.867 9.08594 101.664 9.23438 102.359 9.53125C103.055 9.82812 103.637 10.25 104.105 10.7969C104.582 11.3438 104.941 12 105.184 12.7656C105.426 13.5234 105.547 14.3672 105.547 15.2969V16.7031H95.4688V14.4531H102.23V14.1953C102.23 13.7266 102.145 13.3086 101.973 12.9414C101.809 12.5664 101.559 12.2695 101.223 12.0508C100.887 11.832 100.457 11.7227 99.9336 11.7227C99.4883 11.7227 99.1055 11.8203 98.7852 12.0156C98.4648 12.2109 98.2031 12.4844 98 12.8359C97.8047 13.1875 97.6562 13.6016 97.5547 14.0781C97.4609 14.5469 97.4141 15.0625 97.4141 15.625V16.0938C97.4141 16.6016 97.4844 17.0703 97.625 17.5C97.7734 17.9297 97.9805 18.3008 98.2461 18.6133C98.5195 18.9258 98.8477 19.168 99.2305 19.3398C99.6211 19.5117 100.062 19.5977 100.555 19.5977C101.164 19.5977 101.73 19.4805 102.254 19.2461C102.785 19.0039 103.242 18.6406 103.625 18.1562L105.266 19.9375C105 20.3203 104.637 20.6875 104.176 21.0391C103.723 21.3906 103.176 21.6797 102.535 21.9062C101.895 22.125 101.164 22.2344 100.344 22.2344Z" fill="white"/>
<path d="M82.4961 19.2344V4H85.8945V22H82.8359L82.4961 19.2344ZM74.4805 15.8125V15.5664C74.4805 14.5977 74.5898 13.7188 74.8086 12.9297C75.0273 12.1328 75.3477 11.4492 75.7695 10.8789C76.1914 10.3086 76.7109 9.86719 77.3281 9.55469C77.9453 9.24219 78.6484 9.08594 79.4375 9.08594C80.1797 9.08594 80.8281 9.24219 81.3828 9.55469C81.9453 9.86719 82.4219 10.3125 82.8125 10.8906C83.2109 11.4609 83.5312 12.1367 83.7734 12.918C84.0156 13.6914 84.1914 14.5391 84.3008 15.4609V16C84.1914 16.8828 84.0156 17.7031 83.7734 18.4609C83.5312 19.2188 83.2109 19.8828 82.8125 20.4531C82.4219 21.0156 81.9453 21.4531 81.3828 21.7656C80.8203 22.0781 80.1641 22.2344 79.4141 22.2344C78.625 22.2344 77.9219 22.0742 77.3047 21.7539C76.6953 21.4336 76.1797 20.9844 75.7578 20.4062C75.3438 19.8281 75.0273 19.1484 74.8086 18.3672C74.5898 17.5859 74.4805 16.7344 74.4805 15.8125ZM77.8555 15.5664V15.8125C77.8555 16.3359 77.8945 16.8242 77.9727 17.2773C78.0586 17.7305 78.1953 18.1328 78.3828 18.4844C78.5781 18.8281 78.8281 19.0977 79.1328 19.293C79.4453 19.4805 79.8242 19.5742 80.2695 19.5742C80.8477 19.5742 81.3242 19.4453 81.6992 19.1875C82.0742 18.9219 82.3594 18.5586 82.5547 18.0977C82.7578 17.6367 82.875 17.1055 82.9062 16.5039V14.9688C82.8828 14.4766 82.8125 14.0352 82.6953 13.6445C82.5859 13.2461 82.4219 12.9062 82.2031 12.625C81.9922 12.3438 81.7266 12.125 81.4062 11.9688C81.0938 11.8125 80.7227 11.7344 80.293 11.7344C79.8555 11.7344 79.4805 11.8359 79.168 12.0391C78.8555 12.2344 78.6016 12.5039 78.4062 12.8477C78.2188 13.1914 78.0781 13.5977 77.9844 14.0664C77.8984 14.5273 77.8555 15.0273 77.8555 15.5664Z" fill="white"/>
<path d="M60.9219 15.7891V15.543C60.9219 14.6133 61.0547 13.7578 61.3203 12.9766C61.5859 12.1875 61.9727 11.5039 62.4805 10.9258C62.9883 10.3477 63.6133 9.89844 64.3555 9.57812C65.0977 9.25 65.9492 9.08594 66.9102 9.08594C67.8711 9.08594 68.7266 9.25 69.4766 9.57812C70.2266 9.89844 70.8555 10.3477 71.3633 10.9258C71.8789 11.5039 72.2695 12.1875 72.5352 12.9766C72.8008 13.7578 72.9336 14.6133 72.9336 15.543V15.7891C72.9336 16.7109 72.8008 17.5664 72.5352 18.3555C72.2695 19.1367 71.8789 19.8203 71.3633 20.4062C70.8555 20.9844 70.2305 21.4336 69.4883 21.7539C68.7461 22.0742 67.8945 22.2344 66.9336 22.2344C65.9727 22.2344 65.1172 22.0742 64.3672 21.7539C63.625 21.4336 62.9961 20.9844 62.4805 20.4062C61.9727 19.8203 61.5859 19.1367 61.3203 18.3555C61.0547 17.5664 60.9219 16.7109 60.9219 15.7891ZM64.2969 15.543V15.7891C64.2969 16.3203 64.3438 16.8164 64.4375 17.2773C64.5312 17.7383 64.6797 18.1445 64.8828 18.4961C65.0938 18.8398 65.3672 19.1094 65.7031 19.3047C66.0391 19.5 66.4492 19.5977 66.9336 19.5977C67.4023 19.5977 67.8047 19.5 68.1406 19.3047C68.4766 19.1094 68.7461 18.8398 68.9492 18.4961C69.1523 18.1445 69.3008 17.7383 69.3945 17.2773C69.4961 16.8164 69.5469 16.3203 69.5469 15.7891V15.543C69.5469 15.0273 69.4961 14.543 69.3945 14.0898C69.3008 13.6289 69.1484 13.2227 68.9375 12.8711C68.7344 12.5117 68.4648 12.2305 68.1289 12.0273C67.793 11.8242 67.3867 11.7227 66.9102 11.7227C66.4336 11.7227 66.0273 11.8242 65.6914 12.0273C65.3633 12.2305 65.0938 12.5117 64.8828 12.8711C64.6797 13.2227 64.5312 13.6289 64.4375 14.0898C64.3438 14.543 64.2969 15.0273 64.2969 15.543Z" fill="white"/>
<path d="M47.375 15.7891V15.543C47.375 14.6133 47.5078 13.7578 47.7734 12.9766C48.0391 12.1875 48.4258 11.5039 48.9336 10.9258C49.4414 10.3477 50.0664 9.89844 50.8086 9.57812C51.5508 9.25 52.4023 9.08594 53.3633 9.08594C54.3242 9.08594 55.1797 9.25 55.9297 9.57812C56.6797 9.89844 57.3086 10.3477 57.8164 10.9258C58.332 11.5039 58.7227 12.1875 58.9883 12.9766C59.2539 13.7578 59.3867 14.6133 59.3867 15.543V15.7891C59.3867 16.7109 59.2539 17.5664 58.9883 18.3555C58.7227 19.1367 58.332 19.8203 57.8164 20.4062C57.3086 20.9844 56.6836 21.4336 55.9414 21.7539C55.1992 22.0742 54.3477 22.2344 53.3867 22.2344C52.4258 22.2344 51.5703 22.0742 50.8203 21.7539C50.0781 21.4336 49.4492 20.9844 48.9336 20.4062C48.4258 19.8203 48.0391 19.1367 47.7734 18.3555C47.5078 17.5664 47.375 16.7109 47.375 15.7891ZM50.75 15.543V15.7891C50.75 16.3203 50.7969 16.8164 50.8906 17.2773C50.9844 17.7383 51.1328 18.1445 51.3359 18.4961C51.5469 18.8398 51.8203 19.1094 52.1562 19.3047C52.4922 19.5 52.9023 19.5977 53.3867 19.5977C53.8555 19.5977 54.2578 19.5 54.5938 19.3047C54.9297 19.1094 55.1992 18.8398 55.4023 18.4961C55.6055 18.1445 55.7539 17.7383 55.8477 17.2773C55.9492 16.8164 56 16.3203 56 15.7891V15.543C56 15.0273 55.9492 14.543 55.8477 14.0898C55.7539 13.6289 55.6016 13.2227 55.3906 12.8711C55.1875 12.5117 54.918 12.2305 54.582 12.0273C54.2461 11.8242 53.8398 11.7227 53.3633 11.7227C52.8867 11.7227 52.4805 11.8242 52.1445 12.0273C51.8164 12.2305 51.5469 12.5117 51.3359 12.8711C51.1328 13.2227 50.9844 13.6289 50.8906 14.0898C50.7969 14.543 50.75 15.0273 50.75 15.543Z" fill="white"/>
<path d="M43.6133 22H40.2148V8.19531C40.2148 7.23438 40.4023 6.42578 40.7773 5.76953C41.1602 5.10547 41.6953 4.60547 42.3828 4.26953C43.0781 3.92578 43.9023 3.75391 44.8555 3.75391C45.168 3.75391 45.4688 3.77734 45.7578 3.82422C46.0469 3.86328 46.3281 3.91406 46.6016 3.97656L46.5664 6.51953C46.418 6.48047 46.2617 6.45312 46.0977 6.4375C45.9336 6.42188 45.7422 6.41406 45.5234 6.41406C45.1172 6.41406 44.7695 6.48438 44.4805 6.625C44.1992 6.75781 43.9844 6.95703 43.8359 7.22266C43.6875 7.48828 43.6133 7.8125 43.6133 8.19531V22ZM46.1445 9.32031V11.7109H38.3281V9.32031H46.1445Z" fill="white"/>
<path d="M13 0L25.9904 7.5V22.5L13 30L0.00964355 22.5V7.5L13 0Z" fill="#065E7C"/>
</svg>
