<svg width="318" height="48" viewBox="0 0 318 48" fill="none" xmlns="http://www.w3.org/2000/svg">
<path d="M310.381 21.6504V39H304.475V16.8105H310.032L310.381 21.6504ZM317.066 16.667L316.964 22.1426C316.677 22.1016 316.328 22.0674 315.918 22.04C315.521 21.999 315.159 21.9785 314.831 21.9785C313.997 21.9785 313.272 22.0879 312.657 22.3066C312.056 22.5117 311.55 22.8193 311.14 23.2295C310.743 23.6396 310.442 24.1387 310.237 24.7266C310.046 25.3145 309.937 25.9844 309.909 26.7363L308.72 26.3672C308.72 24.9316 308.863 23.6123 309.15 22.4092C309.438 21.1924 309.854 20.1328 310.401 19.2305C310.962 18.3281 311.646 17.6309 312.452 17.1387C313.259 16.6465 314.182 16.4004 315.221 16.4004C315.549 16.4004 315.884 16.4277 316.226 16.4824C316.567 16.5234 316.848 16.585 317.066 16.667Z" fill="white"/>
<path d="M292.006 39.4102C290.283 39.4102 288.738 39.1367 287.371 38.5898C286.004 38.0293 284.842 37.2568 283.885 36.2725C282.941 35.2881 282.217 34.1465 281.711 32.8477C281.205 31.5352 280.952 30.1406 280.952 28.6641V27.8438C280.952 26.1621 281.191 24.624 281.67 23.2295C282.148 21.835 282.832 20.625 283.721 19.5996C284.623 18.5742 285.717 17.7881 287.002 17.2412C288.287 16.6807 289.736 16.4004 291.35 16.4004C292.922 16.4004 294.316 16.6602 295.533 17.1797C296.75 17.6992 297.769 18.4375 298.589 19.3945C299.423 20.3516 300.052 21.5 300.476 22.8398C300.899 24.166 301.111 25.6426 301.111 27.2695V29.7305H283.475V25.793H295.308V25.3418C295.308 24.5215 295.157 23.79 294.856 23.1475C294.569 22.4912 294.132 21.9717 293.544 21.5889C292.956 21.2061 292.204 21.0146 291.288 21.0146C290.509 21.0146 289.839 21.1855 289.278 21.5273C288.718 21.8691 288.26 22.3477 287.904 22.9629C287.562 23.5781 287.303 24.3027 287.125 25.1367C286.961 25.957 286.879 26.8594 286.879 27.8438V28.6641C286.879 29.5527 287.002 30.373 287.248 31.125C287.508 31.877 287.87 32.5264 288.335 33.0732C288.813 33.6201 289.388 34.0439 290.058 34.3447C290.741 34.6455 291.514 34.7959 292.375 34.7959C293.441 34.7959 294.433 34.5908 295.349 34.1807C296.278 33.7568 297.078 33.1211 297.748 32.2734L300.619 35.3906C300.154 36.0605 299.519 36.7031 298.712 37.3184C297.919 37.9336 296.962 38.4395 295.841 38.8359C294.72 39.2188 293.441 39.4102 292.006 39.4102Z" fill="white"/>
<path d="M272.729 21.6504V39H266.822V16.8105H272.38L272.729 21.6504ZM279.414 16.667L279.312 22.1426C279.024 22.1016 278.676 22.0674 278.266 22.04C277.869 21.999 277.507 21.9785 277.179 21.9785C276.345 21.9785 275.62 22.0879 275.005 22.3066C274.403 22.5117 273.897 22.8193 273.487 23.2295C273.091 23.6396 272.79 24.1387 272.585 24.7266C272.394 25.3145 272.284 25.9844 272.257 26.7363L271.067 26.3672C271.067 24.9316 271.211 23.6123 271.498 22.4092C271.785 21.1924 272.202 20.1328 272.749 19.2305C273.31 18.3281 273.993 17.6309 274.8 17.1387C275.606 16.6465 276.529 16.4004 277.568 16.4004C277.896 16.4004 278.231 16.4277 278.573 16.4824C278.915 16.5234 279.195 16.585 279.414 16.667Z" fill="white"/>
<path d="M242.172 28.1309V27.7002C242.172 26.0732 242.404 24.5762 242.869 23.209C243.334 21.8281 244.011 20.6318 244.899 19.6201C245.788 18.6084 246.882 17.8223 248.181 17.2617C249.479 16.6875 250.97 16.4004 252.651 16.4004C254.333 16.4004 255.83 16.6875 257.143 17.2617C258.455 17.8223 259.556 18.6084 260.444 19.6201C261.347 20.6318 262.03 21.8281 262.495 23.209C262.96 24.5762 263.192 26.0732 263.192 27.7002V28.1309C263.192 29.7441 262.96 31.2412 262.495 32.6221C262.03 33.9893 261.347 35.1855 260.444 36.2109C259.556 37.2227 258.462 38.0088 257.163 38.5693C255.864 39.1299 254.374 39.4102 252.692 39.4102C251.011 39.4102 249.514 39.1299 248.201 38.5693C246.902 38.0088 245.802 37.2227 244.899 36.2109C244.011 35.1855 243.334 33.9893 242.869 32.6221C242.404 31.2412 242.172 29.7441 242.172 28.1309ZM248.078 27.7002V28.1309C248.078 29.0605 248.16 29.9287 248.324 30.7354C248.488 31.542 248.748 32.2529 249.104 32.8682C249.473 33.4697 249.951 33.9414 250.539 34.2832C251.127 34.625 251.845 34.7959 252.692 34.7959C253.513 34.7959 254.217 34.625 254.805 34.2832C255.393 33.9414 255.864 33.4697 256.22 32.8682C256.575 32.2529 256.835 31.542 256.999 30.7354C257.177 29.9287 257.266 29.0605 257.266 28.1309V27.7002C257.266 26.7979 257.177 25.9502 256.999 25.1572C256.835 24.3506 256.568 23.6396 256.199 23.0244C255.844 22.3955 255.372 21.9033 254.784 21.5479C254.196 21.1924 253.485 21.0146 252.651 21.0146C251.817 21.0146 251.106 21.1924 250.519 21.5479C249.944 21.9033 249.473 22.3955 249.104 23.0244C248.748 23.6396 248.488 24.3506 248.324 25.1572C248.16 25.9502 248.078 26.7979 248.078 27.7002Z" fill="white"/>
<path d="M238.234 7.5V39H232.308V7.5H238.234Z" fill="white"/>
<path d="M214.281 21.0762V47.5312H208.375V16.8105H213.851L214.281 21.0762ZM228.329 27.6592V28.0898C228.329 29.7031 228.138 31.2002 227.755 32.5811C227.386 33.9619 226.839 35.165 226.114 36.1904C225.39 37.2021 224.487 37.9951 223.407 38.5693C222.341 39.1299 221.11 39.4102 219.716 39.4102C218.362 39.4102 217.187 39.1367 216.188 38.5898C215.19 38.043 214.35 37.2773 213.666 36.293C212.996 35.2949 212.456 34.1396 212.046 32.8271C211.636 31.5146 211.321 30.1064 211.103 28.6025V27.4746C211.321 25.8613 211.636 24.3848 212.046 23.0449C212.456 21.6914 212.996 20.5225 213.666 19.5381C214.35 18.54 215.184 17.7676 216.168 17.2207C217.166 16.6738 218.335 16.4004 219.675 16.4004C221.083 16.4004 222.32 16.667 223.387 17.2002C224.467 17.7334 225.369 18.499 226.094 19.4971C226.832 20.4951 227.386 21.6846 227.755 23.0654C228.138 24.4463 228.329 25.9775 228.329 27.6592ZM222.402 28.0898V27.6592C222.402 26.7158 222.32 25.8477 222.156 25.0547C222.006 24.248 221.76 23.5439 221.418 22.9424C221.09 22.3408 220.652 21.876 220.105 21.5479C219.572 21.2061 218.923 21.0352 218.157 21.0352C217.351 21.0352 216.66 21.165 216.086 21.4248C215.525 21.6846 215.067 22.0605 214.712 22.5527C214.356 23.0449 214.09 23.6328 213.912 24.3164C213.734 25 213.625 25.7725 213.584 26.6338V29.4844C213.652 30.4961 213.844 31.4053 214.158 32.2119C214.473 33.0049 214.958 33.6338 215.614 34.0986C216.271 34.5635 217.132 34.7959 218.198 34.7959C218.978 34.7959 219.634 34.625 220.167 34.2832C220.7 33.9277 221.131 33.4424 221.459 32.8271C221.801 32.2119 222.04 31.501 222.177 30.6943C222.327 29.8877 222.402 29.0195 222.402 28.0898Z" fill="white"/>
<path d="M191.764 16.8105L195.435 23.5576L199.208 16.8105H205.504L199.229 27.6592L205.791 39H199.475L195.476 31.8633L191.477 39H185.16L191.723 27.6592L185.447 16.8105H191.764Z" fill="white"/>
<path d="M174.537 39.4102C172.814 39.4102 171.27 39.1367 169.902 38.5898C168.535 38.0293 167.373 37.2568 166.416 36.2725C165.473 35.2881 164.748 34.1465 164.242 32.8477C163.736 31.5352 163.483 30.1406 163.483 28.6641V27.8438C163.483 26.1621 163.723 24.624 164.201 23.2295C164.68 21.835 165.363 20.625 166.252 19.5996C167.154 18.5742 168.248 17.7881 169.533 17.2412C170.818 16.6807 172.268 16.4004 173.881 16.4004C175.453 16.4004 176.848 16.6602 178.064 17.1797C179.281 17.6992 180.3 18.4375 181.12 19.3945C181.954 20.3516 182.583 21.5 183.007 22.8398C183.431 24.166 183.643 25.6426 183.643 27.2695V29.7305H166.006V25.793H177.839V25.3418C177.839 24.5215 177.688 23.79 177.388 23.1475C177.101 22.4912 176.663 21.9717 176.075 21.5889C175.487 21.2061 174.735 21.0146 173.819 21.0146C173.04 21.0146 172.37 21.1855 171.81 21.5273C171.249 21.8691 170.791 22.3477 170.436 22.9629C170.094 23.5781 169.834 24.3027 169.656 25.1367C169.492 25.957 169.41 26.8594 169.41 27.8438V28.6641C169.41 29.5527 169.533 30.373 169.779 31.125C170.039 31.877 170.401 32.5264 170.866 33.0732C171.345 33.6201 171.919 34.0439 172.589 34.3447C173.272 34.6455 174.045 34.7959 174.906 34.7959C175.973 34.7959 176.964 34.5908 177.88 34.1807C178.81 33.7568 179.609 33.1211 180.279 32.2734L183.15 35.3906C182.686 36.0605 182.05 36.7031 181.243 37.3184C180.45 37.9336 179.493 38.4395 178.372 38.8359C177.251 39.2188 175.973 39.4102 174.537 39.4102Z" fill="white"/>
<path d="M143.304 34.1602V7.5H149.251V39H143.898L143.304 34.1602ZM129.276 28.1719V27.7412C129.276 26.0459 129.468 24.5078 129.851 23.127C130.233 21.7324 130.794 20.5361 131.532 19.5381C132.271 18.54 133.18 17.7676 134.26 17.2207C135.34 16.6738 136.57 16.4004 137.951 16.4004C139.25 16.4004 140.385 16.6738 141.355 17.2207C142.34 17.7676 143.174 18.5469 143.857 19.5586C144.555 20.5566 145.115 21.7393 145.539 23.1064C145.963 24.46 146.271 25.9434 146.462 27.5566V28.5C146.271 30.0449 145.963 31.4805 145.539 32.8066C145.115 34.1328 144.555 35.2949 143.857 36.293C143.174 37.2773 142.34 38.043 141.355 38.5898C140.371 39.1367 139.223 39.4102 137.91 39.4102C136.529 39.4102 135.299 39.1299 134.219 38.5693C133.152 38.0088 132.25 37.2227 131.512 36.2109C130.787 35.1992 130.233 34.0098 129.851 32.6426C129.468 31.2754 129.276 29.7852 129.276 28.1719ZM135.183 27.7412V28.1719C135.183 29.0879 135.251 29.9424 135.388 30.7354C135.538 31.5283 135.777 32.2324 136.105 32.8477C136.447 33.4492 136.885 33.9209 137.418 34.2627C137.965 34.5908 138.628 34.7549 139.407 34.7549C140.419 34.7549 141.253 34.5293 141.909 34.0781C142.565 33.6133 143.064 32.9775 143.406 32.1709C143.762 31.3643 143.967 30.4346 144.021 29.3818V26.6953C143.98 25.834 143.857 25.0615 143.652 24.3779C143.461 23.6807 143.174 23.0859 142.791 22.5938C142.422 22.1016 141.957 21.7188 141.396 21.4453C140.85 21.1719 140.2 21.0352 139.448 21.0352C138.683 21.0352 138.026 21.2129 137.479 21.5684C136.933 21.9102 136.488 22.3818 136.146 22.9834C135.818 23.585 135.572 24.2959 135.408 25.1162C135.258 25.9229 135.183 26.7979 135.183 27.7412Z" fill="white"/>
<path d="M105.549 28.1309V27.7002C105.549 26.0732 105.781 24.5762 106.246 23.209C106.711 21.8281 107.388 20.6318 108.276 19.6201C109.165 18.6084 110.259 17.8223 111.558 17.2617C112.856 16.6875 114.347 16.4004 116.028 16.4004C117.71 16.4004 119.207 16.6875 120.52 17.2617C121.832 17.8223 122.933 18.6084 123.821 19.6201C124.724 20.6318 125.407 21.8281 125.872 23.209C126.337 24.5762 126.569 26.0732 126.569 27.7002V28.1309C126.569 29.7441 126.337 31.2412 125.872 32.6221C125.407 33.9893 124.724 35.1855 123.821 36.2109C122.933 37.2227 121.839 38.0088 120.54 38.5693C119.241 39.1299 117.751 39.4102 116.069 39.4102C114.388 39.4102 112.891 39.1299 111.578 38.5693C110.279 38.0088 109.179 37.2227 108.276 36.2109C107.388 35.1855 106.711 33.9893 106.246 32.6221C105.781 31.2412 105.549 29.7441 105.549 28.1309ZM111.455 27.7002V28.1309C111.455 29.0605 111.537 29.9287 111.701 30.7354C111.865 31.542 112.125 32.2529 112.48 32.8682C112.85 33.4697 113.328 33.9414 113.916 34.2832C114.504 34.625 115.222 34.7959 116.069 34.7959C116.89 34.7959 117.594 34.625 118.182 34.2832C118.77 33.9414 119.241 33.4697 119.597 32.8682C119.952 32.2529 120.212 31.542 120.376 30.7354C120.554 29.9287 120.643 29.0605 120.643 28.1309V27.7002C120.643 26.7979 120.554 25.9502 120.376 25.1572C120.212 24.3506 119.945 23.6396 119.576 23.0244C119.221 22.3955 118.749 21.9033 118.161 21.5479C117.573 21.1924 116.862 21.0146 116.028 21.0146C115.194 21.0146 114.483 21.1924 113.896 21.5479C113.321 21.9033 112.85 22.3955 112.48 23.0244C112.125 23.6396 111.865 24.3506 111.701 25.1572C111.537 25.9502 111.455 26.7979 111.455 27.7002Z" fill="white"/>
<path d="M81.8418 28.1309V27.7002C81.8418 26.0732 82.0742 24.5762 82.5391 23.209C83.0039 21.8281 83.6807 20.6318 84.5693 19.6201C85.458 18.6084 86.5518 17.8223 87.8506 17.2617C89.1494 16.6875 90.6396 16.4004 92.3213 16.4004C94.0029 16.4004 95.5 16.6875 96.8125 17.2617C98.125 17.8223 99.2256 18.6084 100.114 19.6201C101.017 20.6318 101.7 21.8281 102.165 23.209C102.63 24.5762 102.862 26.0732 102.862 27.7002V28.1309C102.862 29.7441 102.63 31.2412 102.165 32.6221C101.7 33.9893 101.017 35.1855 100.114 36.2109C99.2256 37.2227 98.1318 38.0088 96.833 38.5693C95.5342 39.1299 94.0439 39.4102 92.3623 39.4102C90.6807 39.4102 89.1836 39.1299 87.8711 38.5693C86.5723 38.0088 85.4717 37.2227 84.5693 36.2109C83.6807 35.1855 83.0039 33.9893 82.5391 32.6221C82.0742 31.2412 81.8418 29.7441 81.8418 28.1309ZM87.748 27.7002V28.1309C87.748 29.0605 87.8301 29.9287 87.9941 30.7354C88.1582 31.542 88.418 32.2529 88.7734 32.8682C89.1426 33.4697 89.6211 33.9414 90.209 34.2832C90.7969 34.625 91.5146 34.7959 92.3623 34.7959C93.1826 34.7959 93.8867 34.625 94.4746 34.2832C95.0625 33.9414 95.5342 33.4697 95.8896 32.8682C96.2451 32.2529 96.5049 31.542 96.6689 30.7354C96.8467 29.9287 96.9355 29.0605 96.9355 28.1309V27.7002C96.9355 26.7979 96.8467 25.9502 96.6689 25.1572C96.5049 24.3506 96.2383 23.6396 95.8691 23.0244C95.5137 22.3955 95.042 21.9033 94.4541 21.5479C93.8662 21.1924 93.1553 21.0146 92.3213 21.0146C91.4873 21.0146 90.7764 21.1924 90.1885 21.5479C89.6143 21.9033 89.1426 22.3955 88.7734 23.0244C88.418 23.6396 88.1582 24.3506 87.9941 25.1572C87.8301 25.9502 87.748 26.7979 87.748 27.7002Z" fill="white"/>
<path d="M75.2588 39H69.3115V14.8418C69.3115 13.1602 69.6396 11.7451 70.2959 10.5967C70.9658 9.43457 71.9023 8.55957 73.1055 7.97168C74.3223 7.37012 75.7646 7.06934 77.4326 7.06934C77.9795 7.06934 78.5059 7.11035 79.0117 7.19238C79.5176 7.26074 80.0098 7.34961 80.4883 7.45898L80.4268 11.9092C80.167 11.8408 79.8936 11.793 79.6064 11.7656C79.3193 11.7383 78.9844 11.7246 78.6016 11.7246C77.8906 11.7246 77.2822 11.8477 76.7764 12.0938C76.2842 12.3262 75.9082 12.6748 75.6484 13.1396C75.3887 13.6045 75.2588 14.1719 75.2588 14.8418V39ZM79.6885 16.8105V20.9941H66.0098V16.8105H79.6885Z" fill="white"/>
<path d="M21.7142 0.498779L43.1173 12.3741V36.1248L21.7142 48.0002L0.311071 36.1248V12.3741L21.7142 0.498779Z" fill="#065E7C"/>
</svg>
