<svg width="1200" height="1200" viewBox="0 0 1200 1200" fill="none" xmlns="http://www.w3.org/2000/svg">
<rect width="1200" height="1200" fill="white"/>
<path d="M513.793 134.483V100H444.828V134.483H513.793Z" fill="#000405"/>
<path d="M410.345 237.931H375.862V272.414H410.345V237.931Z" fill="#000405"/>
<path d="M410.345 306.897H375.862V341.379H410.345V306.897Z" fill="#000405"/>
<path d="M444.828 341.379H479.31V168.966H410.345V100H375.862V203.448H444.828V272.414H410.345V306.897H444.828V341.379Z" fill="#000405"/>
<path d="M617.241 306.897H582.759V341.379H617.241V306.897Z" fill="#000405"/>
<path d="M651.724 341.379H617.241V375.862H686.207V306.897H720.69V341.379H755.172V272.414H789.655V237.931H824.138V134.483H755.172V100H720.69V168.966H755.172V237.931H720.69V203.448H686.207V100H617.241V134.483H651.724V168.966H617.241V203.448H651.724V237.931H582.759V272.414H617.241V306.897H651.724V341.379Z" fill="#000405"/>
<path d="M789.655 341.379H824.138V272.414H789.655V341.379Z" fill="#000405"/>
<path d="M755.172 410.345H720.69V375.862H686.207V410.345H651.724V444.828H617.241V479.31H651.724V513.793H617.241V548.276H651.724V617.241H720.69V582.759H755.172V548.276H686.207V513.793H789.655V479.31H686.207V444.828H789.655V410.345H824.138V444.828H858.621V375.862H789.655V341.379H755.172V410.345Z" fill="#000405"/>
<path d="M134.483 375.862H100V410.345H134.483V375.862Z" fill="#000405"/>
<path d="M996.552 375.862V479.31H1031.03V444.828H1065.52V410.345H1100V375.862H996.552Z" fill="#000405"/>
<path d="M237.931 444.828V479.31H341.379V444.828H306.897V410.345H341.379V444.828H375.862V410.345H410.345V375.862H203.448V410.345H168.966V444.828H237.931Z" fill="#000405"/>
<path d="M513.793 375.862H444.828V410.345H479.31V444.828H513.793V375.862Z" fill="#000405"/>
<path d="M962.069 375.862H927.586V410.345H893.103V479.31H824.138V513.793H858.621V582.759H755.172V720.69H720.69V755.172H755.172V789.655H789.655V686.207H858.621V651.724H789.655V617.241H893.103V582.759H927.586V617.241H893.103V651.724H962.069V582.759H996.552V651.724H1031.03V582.759H1065.52V651.724H1100V479.31H1065.52V548.276H927.586V479.31H962.069V375.862Z" fill="#000405"/>
<path d="M824.138 444.828H789.655V479.31H824.138V444.828Z" fill="#000405"/>
<path d="M168.966 513.793V444.828H100V513.793H168.966Z" fill="#000405"/>
<path d="M444.828 479.31H479.31V444.828H410.345V513.793H444.828V479.31Z" fill="#000405"/>
<path d="M996.552 479.31H962.069V513.793H996.552V479.31Z" fill="#000405"/>
<path d="M203.448 513.793H168.966V548.276H203.448V513.793Z" fill="#000405"/>
<path d="M410.345 548.276V513.793H306.897V548.276H341.379V582.759H375.862V548.276H410.345Z" fill="#000405"/>
<path d="M824.138 513.793H789.655V548.276H824.138V513.793Z" fill="#000405"/>
<path d="M134.483 548.276H100V582.759H134.483V548.276Z" fill="#000405"/>
<path d="M306.897 548.276H272.414V582.759H306.897V548.276Z" fill="#000405"/>
<path d="M134.483 582.759V617.241H203.448V582.759H134.483Z" fill="#000405"/>
<path d="M272.414 582.759H237.931V617.241H272.414V582.759Z" fill="#000405"/>
<path d="M341.379 582.759H306.897V617.241H341.379V582.759Z" fill="#000405"/>
<path d="M237.931 617.241H203.448V651.724H237.931V617.241Z" fill="#000405"/>
<path d="M548.276 617.241H513.793V651.724H548.276V617.241Z" fill="#000405"/>
<path d="M651.724 617.241H617.241V651.724H651.724V617.241Z" fill="#000405"/>
<path d="M996.552 651.724H962.069V686.207H996.552V651.724Z" fill="#000405"/>
<path d="M479.31 720.69H513.793V755.172H548.276V720.69H617.241V651.724H582.759V686.207H513.793V651.724H444.828V686.207H479.31V720.69Z" fill="#000405"/>
<path d="M686.207 686.207V651.724H651.724V720.69H720.69V686.207H686.207Z" fill="#000405"/>
<path d="M962.069 686.207H927.586V755.172H962.069V789.655H893.103V755.172H858.621V789.655H789.655V858.621H755.172V824.138H720.69V789.655H617.241V755.172H582.759V789.655H548.276V824.138H582.759V927.586H548.276V824.138H513.793V789.655H444.828V824.138H410.345V789.655H375.862V720.69H444.828V686.207H410.345V617.241H479.31V582.759H548.276V617.241H582.759V582.759H617.241V548.276H582.759V341.379H548.276V272.414H513.793V375.862H548.276V479.31H513.793V513.793H479.31V548.276H444.828V582.759H375.862V651.724H306.897V686.207H341.379V720.69H306.897V686.207H272.414V755.172H237.931V720.69H203.448V686.207H168.966V651.724H100V824.138H375.862V996.552H410.345V1031.03H444.828V1065.52H375.862V1100H513.793V1065.52H548.276V1100H617.241V1031.03H548.276V962.069H617.241V927.586H651.724V893.103H617.241V824.138H686.207V927.586H720.69V893.103H755.172V962.069H824.138V996.552H789.655V1031.03H858.621V962.069H996.552V927.586H962.069V893.103H996.552V824.138H1065.52V789.655H1031.03V755.172H996.552V720.69H962.069V686.207ZM306.897 789.655V755.172H341.379V789.655H306.897ZM513.793 1031.03H479.31V996.552H444.828V962.069H410.345V927.586H444.828V893.103H410.345V858.621H513.793V927.586H444.828V962.069H513.793V1031.03ZM927.586 927.586H824.138V824.138H927.586V927.586Z" fill="#000405"/>
<path d="M1065.52 720.69V686.207H996.552V720.69H1065.52Z" fill="#000405"/>
<path d="M479.31 720.69H444.828V755.172H479.31V720.69Z" fill="#000405"/>
<path d="M651.724 720.69H617.241V755.172H651.724V720.69Z" fill="#000405"/>
<path d="M1100 720.69H1065.52V755.172H1100V720.69Z" fill="#000405"/>
<path d="M893.103 858.621H858.621V893.103H893.103V858.621Z" fill="#000405"/>
<path d="M686.207 927.586H651.724V962.069H686.207V927.586Z" fill="#000405"/>
<path d="M686.207 962.069V996.552H755.172V962.069H686.207Z" fill="#000405"/>
<path d="M617.241 996.552V1031.03H686.207V996.552H617.241Z" fill="#000405"/>
<path d="M755.172 1031.03H720.69V1065.52H755.172V1031.03Z" fill="#000405"/>
<path d="M1031.03 1065.52V1031.03H1065.52V1065.52H1100V996.552H1065.52V962.069H1031.03V996.552H996.552V1031.03H962.069V1065.52H1031.03Z" fill="#000405"/>
<path d="M755.172 1065.52V1100H824.138V1065.52H755.172Z" fill="#000405"/>
<path d="M858.621 1100H893.103V1065.52H927.586V1031.03H962.069V996.552H893.103V1031.03H858.621V1100Z" fill="#000405"/>
<path d="M962.069 1065.52H927.586V1100H962.069V1065.52Z" fill="#000405"/>
<path d="M341.379 341.379V100H100V341.379H341.379ZM136.207 136.207H305.172V305.172H136.207V136.207Z" fill="#000405"/>
<path d="M858.621 100V341.379H1100V100H858.621ZM1063.79 305.172H894.828V136.207H1063.79V305.172Z" fill="#000405"/>
<path d="M100 858.621V1100H341.379V858.621H100ZM305.172 1063.79H136.207V894.828H305.172V1063.79Z" fill="#000405"/>
<path d="M272.414 168.966H168.966V272.414H272.414V168.966Z" fill="#000405"/>
<path d="M1031.03 168.966H927.586V272.414H1031.03V168.966Z" fill="#000405"/>
<path d="M272.414 927.586H168.966V1031.03H272.414V927.586Z" fill="#000405"/>
</svg>
